<?xml version="1.0" encoding="iso-8859-1"?>
<!-- Uploaded to: SVG Repo, www.svgrepo.com, Generator: SVG Repo Mixer Tools -->
<svg fill="#F8F8FF" height="800px" width="800px" version="1.1" id="Layer_1" xmlns="http://www.w3.org/2000/svg" xmlns:xlink="http://www.w3.org/1999/xlink" 
	 viewBox="0 0 512 512" xml:space="preserve">
<g transform="scale(-1,1) translate(-512,0)">
	<g>
		<g>
			<path d="M457.184,54.859C421.808,19.483,374.772,0,324.742,0s-97.066,19.483-132.443,54.859
				c-59.66,59.661-70.569,149.884-32.751,220.735L0.044,435.097L76.946,512l159.445-159.445
				c26.854,14.402,57.013,22.047,88.349,22.05c0.007,0,0.012,0,0.018,0c50.021,0,97.05-19.483,132.427-54.86
				C530.213,246.715,530.213,127.889,457.184,54.859z M76.946,460.731l-25.634-25.634l128.792-128.792
				c3.811,4.626,7.872,9.116,12.195,13.44c4.308,4.308,8.791,8.375,13.429,12.206L76.946,460.731z M431.551,294.111
				c-28.533,28.531-66.455,44.243-106.794,44.241c-0.002,0-0.012,0-0.014,0c-40.352-0.004-78.284-15.715-106.809-44.242
				c-58.894-58.895-58.894-154.723,0-213.617c28.53-28.529,66.462-44.241,106.809-44.241c40.347,0,78.279,15.712,106.809,44.241
				C490.445,139.388,490.445,235.216,431.551,294.111z"/>
		</g>
	</g>
</g>
</svg>